<svg width="384" height="318" viewBox="0 0 384 318" xmlns="http://www.w3.org/2000/svg" xmlns:xlink="http://www.w3.org/1999/xlink">
    <defs>
        <path id="gtn8terrca" d="M0 0h117.793v107.049H0z"/>
        <path id="4qb5lsv4hc" d="M0 0h134.751v111.687H0z"/>
    </defs>
    <g fill="none" fill-rule="evenodd">
        <path d="M350.673 159c0 87.813-71.04 159-158.673 159S33.326 246.813 33.326 159 104.367 0 192 0c87.633 0 158.673 71.187 158.673 159" fill="#EBEBEB" opacity=".248"/>
        <path d="M306.764 159c0 63.513-51.381 115-114.764 115-63.382 0-114.764-51.487-114.764-115S128.618 44 192 44c63.383 0 114.764 51.487 114.764 115" fill="#F2F2F2"/>
        <g>
            <path d="M190.504 193.537c-1.866-1.912-4.924-1.868-7.555-1.42a39.312 39.312 0 0 0-8.642 2.514c.227-.443.44-.893.658-1.34-2.001 2.984-3.955 6.067-6.418 8.947a293.437 293.437 0 0 0-3.93 4.416c7.02 2.826 15.4 2.326 21.873-1.655 1.985-1.22 3.849-2.804 4.812-4.927.964-2.124.83-4.868-.798-6.535M245.917 148.39c-10.512 3.112-22.117 2.363-32.144-2.074-9.258-4.097-17.162-11.183-26.902-13.938-8.718-2.465-18.448-1.077-26.132 3.729-1.653 1.034-3.365 3.217-2.07 4.677.539.61 1.411.773 2.218.87 5.13.617 10.388.01 15.449 1.055 9.295 1.918 16.918 9.544 19.859 18.586 2.94 9.042 1.499 19.198-2.885 27.632-.945 1.82-2.056 3.87-1.384 5.809.706 2.04 3.038 2.94 5.117 3.502 22.666 6.135 47.97 1.607 67.116-12.01l-18.242-37.839z" fill="#F56144"/>
            <path d="M186.994 153.486a85.634 85.634 0 0 1-20.565-1.41c2.902-20.731.485-63.9 1.048-64.322 0 0 19.258 1.034 27.733 3.189-6.324 18.953-.412 44.078-2.981 63.855l-5.235-1.312z" fill="#7A9947"/>
            <path d="M188.335 146.774c-5.387.282-11.945-.575-17.24-1.59 2.273-16.236-.19-50.387.25-50.717 0 0 13.138 1.099 19.776 2.787-4.953 14.843-.773 34.03-2.786 49.52" fill="#C5D180"/>
            <path d="m189.318 93.896-2.991-.012c-.618-.003-.62.96 0 .962l2.99.012c.619.002.62-.96 0-.962M188.903 96.771c-.97-.418-2.095-.277-2.53.81-.421 1.05.146 1.876 1.185 2.123.899.214 2.256.288 2.681-.75.445-1.087-.474-1.976-1.45-2.231-.599-.157-.854.771-.255.928.365.095 1.038.402.831.91-.191.473-1.02.32-1.39.25-.444-.086-.904-.204-.752-.757.16-.579.695-.668 1.196-.452.561.242 1.05-.586.484-.83M189.395 100.86c-.68-.359-1.83-.213-2.503.1-1.085.508-.438 1.913.254 2.486.859.71 2.208.914 2.99-.02.79-.944.223-2.05-.741-2.565-.546-.29-1.031.54-.485.83.49.262.957.797.36 1.252-.513.39-1.291.032-1.667-.384a1.426 1.426 0 0 1-.258-.378c-.029-.067-.047-.397-.12-.315.106-.119.405-.14.552-.166.304-.053.854-.156 1.133-.009.546.29 1.032-.54.485-.83" fill="#0C113E"/>
            <path d="M191.932 160.744a84.939 84.939 0 0 1-18.453-9.06c10.838-18.005 25.586-58.69 26.273-58.866 0 0 17.391 8.22 24.377 13.405-13.301 15.075-17.72 40.454-27.876 57.707l-4.321-3.186z" fill="#7A9947"/>
            <path d="M195.812 155.067c-5.09-1.773-10.814-5.038-15.31-7.97 8.489-14.103 19.646-46.497 20.184-46.634 0 0 11.71 5.97 17.181 10.031-10.417 11.807-14.102 31.062-22.055 44.573" fill="#C5D180"/>
            <path d="m217.46 106.699-2.76-1.14c-.571-.236-.82.694-.256.927l2.76 1.14c.571.236.82-.694.256-.927M215.96 109.164c-.733-.756-1.864-.963-2.64-.138-.775.823-.547 1.778.32 2.398.732.523 1.925 1.084 2.714.342.908-.852.338-2.053-.492-2.678-.494-.372-.973.463-.485.83.322.243.825 1.02.163 1.222-.425.13-.955-.234-1.288-.459-.394-.266-.634-.562-.254-.975.412-.445.911-.245 1.282.138.431.445 1.11-.236.68-.68M214.804 113.117c-.452-.553-1.56-.814-2.24-.81-1.163.008-1.242 1.4-.875 2.238.44 1.007 1.574 1.785 2.673 1.343.475-.191.865-.57.991-1.077.16-.637-.159-1.218-.549-1.694-.392-.479-1.068.205-.679.68.206.251.42.604.235.925-.14.243-.475.36-.74.331-.61-.067-1.119-.735-1.176-1.321-.013-.134-.018-.347.06-.465-.019.03-.1.031.018.002.168-.042.405.038.566.077.323.078.816.18 1.037.451.392.48 1.068-.205.68-.68" fill="#0C113E"/>
            <path d="M195.635 168.679a83.014 83.014 0 0 1-13.262-15.501c17.285-12.253 47.393-43.744 48.095-43.637 0 0 12.63 14.319 16.936 21.794-18.354 8.607-32.745 30.118-49.096 41.948l-2.673-4.604z" fill="#7A9947"/>
            <path d="M201.51 164.996c-3.954-3.611-7.883-8.836-10.818-13.277 13.537-9.596 36.973-34.898 37.523-34.814 0 0 8.326 10.04 11.699 15.895-14.375 6.741-25.598 22.931-38.404 32.196" fill="#C5D180"/>
            <path d="m241.117 129.2-2.07-2.12c-.433-.444-1.112.236-.68.68l2.072 2.12c.433.444 1.111-.236.678-.68M238.715 130.888c-.33-.908-1.114-1.566-2.122-1.304-1.088.283-1.545 1.28-1.024 2.266.455.86 1.423 1.944 2.506 1.495 1.07-.443 1.097-1.69.592-2.572-.308-.537-1.138-.053-.83.485.197.343.398 1.014-.122 1.203-.526.191-1.026-.608-1.238-.96-.127-.21-.271-.447-.135-.676.103-.174.362-.288.552-.323.455-.086.751.246.896.641.21.577 1.138.328.925-.255M236.045 134.056c-.218-.735-1.177-1.501-1.887-1.721-1.132-.35-1.646 1.16-1.552 2.036.115 1.09.938 2.097 2.106 1.996 1.217-.105 1.63-1.251 1.333-2.311-.166-.595-1.093-.342-.925.256.15.538.062 1.155-.638 1.098-.64-.052-.95-.787-.934-1.358.005-.165.092-.751.277-.818.09-.032.352.177.42.222.271.18.775.521.875.856.175.592 1.102.34.925-.256" fill="#0C113E"/>
            <path d="m124.144 148.681 42.022-8.196c2.997-.584 6.065-1.171 9.091-.75 3.897.544 7.332 2.7 10.533 4.921a152.564 152.564 0 0 1 13.194 10.265c3 2.61 6.125 5.878 5.85 9.775-.096 1.349-.608 2.67-.489 4.016.118 1.329.836 2.53 1.227 3.808.947 3.098-.233 6.7-2.85 8.703 1.962 2.387-.027 6.618-3.174 6.75 2.328 1.173 2.774 4.451 1.522 6.686-1.252 2.234-3.68 3.597-6.094 4.595-6.787 2.805-14.444 3.6-21.69 2.25-1.344-.25-2.989-.948-2.926-2.273.042-.864.833-1.492 1.56-1.993 3.519-2.422 10.352-5.4 14.142-7.401-27.508 7.41-66.299 14.395-86.006-9.11l24.088-32.046z" fill="#FF8C62"/>
            <path d="M124.271 149.145c14.416-2.812 28.813-5.748 43.253-8.432 4.047-.752 7.895-.956 11.745.684 3.206 1.367 6.074 3.484 8.881 5.52a151.443 151.443 0 0 1 8.683 6.792c2.41 2.032 5.057 4.14 6.572 6.97 1.79 3.347-.255 6.672.988 10.084 1.376 3.777 1.33 7.344-2.01 10.12-.15.125-.19.422-.076.583 1.648 2.323.066 5.713-2.759 6.026-.448.05-.684.634-.242.896 2.219 1.318 2.447 4.214 1.181 6.298-1.36 2.242-3.995 3.47-6.343 4.387a38.308 38.308 0 0 1-15.176 2.568 37.736 37.736 0 0 1-3.421-.267c-.707-.089-3.921-.292-4.304-1.247-.902-2.251 2.98-3.78 4.484-4.588 3.474-1.866 7.083-3.462 10.578-5.287.488-.255.149-1.019-.37-.88-11.525 3.096-23.253 5.693-35.167 6.657-11.608.94-23.809.424-34.67-4.166-6.073-2.567-11.426-6.447-15.702-11.476-.402-.472-1.078.211-.679.68 16.222 19.078 44.13 17.94 66.537 13.828 6.71-1.23 13.348-2.825 19.936-4.595l-.37-.879c-4.771 2.493-10.492 4.338-14.677 7.794-1.422 1.174-1.752 2.829-.09 3.971 2.103 1.445 5.859 1.371 8.297 1.43 6.372.153 14.015-1.036 19.351-4.78 3.312-2.325 5.387-7.726 1.09-10.278l-.243.896c2.343-.26 4.167-2.094 4.402-4.477.038-.395.04-.792-.025-1.184-.047-.283-.547-1.173-.511-1.421.057-.402.938-1.049 1.222-1.431a8.77 8.77 0 0 0 1.206-2.246 8.566 8.566 0 0 0 .45-4.122c-.35-2.446-1.737-4.15-1.32-6.74.543-3.368.073-5.912-2.092-8.648-2.66-3.362-6.34-6.045-9.693-8.668-3.472-2.716-7.036-5.472-10.866-7.666-3.64-2.083-7.425-3.054-11.62-2.596-4.605.503-9.183 1.648-13.726 2.534l-32.959 6.428c-.606.119-.35 1.046.255.928" fill="#0C113E"/>
            <path d="M151.624 184.936a55.48 55.48 0 0 0-2.483 5.53 24.254 24.254 0 0 0 2.483-5.53M145.18 207.083c.198.315.42.613.661.895.444-.25.87-.532 1.272-.848l-1.933-.047z" fill="#F56144"/>
            <path d="M174.965 193.29c1.692-3.467 4.22-8.812 6.326-14 1.646-4.053-2.61-7.958-6.497-5.962-2.372 1.219-4.503 2.444-5.5 3.354-2.914 2.659-5.093 6.014-7.183 9.361a33.505 33.505 0 0 0 4.057-11.2c.088-.515.152-1.087-.138-1.52-.273-.409-.786-.577-1.269-.665-4.875-.896-9.086 3.432-11.665 7.674a55.423 55.423 0 0 0-1.885 3.362 24.244 24.244 0 0 1-2.483 5.528 55.396 55.396 0 0 1 2.483-5.528c.483-1.568 1.23-3.76 1.867-6.037 1.052-3.763-3.563-6.43-6.305-3.652-1.963 1.988-3.696 4.254-4.814 5.86-4.669 6.704-8.903 14.196-9.145 22.367-.033 1.095.023 2.247.587 3.185.529.877 1.44 1.454 2.376 1.864 3.064 1.34 6.086.202 8.99-1.44-.241-.282.198.315 0 0-.402.316 1.104.644.66.895 1.78 2.083 4.642 3.223 7.362 2.845 3.087-.43 5.822-2.791 6.702-5.788a22.826 22.826 0 0 0 5.127 2.861 293.427 293.427 0 0 1 3.93-4.416c2.462-2.88 4.416-5.964 6.417-8.947" fill="#F56144"/>
            <path d="M145.293 206.28c-1.044-1.09-.748-3.205-.587-4.55.302-2.519 1.017-5.005 1.8-7.41 1.67-5.123 3.864-10.163 6.72-14.74.437-.701-.67-1.346-1.106-.647-3.195 5.12-5.63 10.854-7.344 16.638-.879 2.966-2.968 8.925-.388 11.616.572.596 1.476-.312.905-.907M159.943 203.34c-2.624-2.394-.987-7.56-.036-10.367 1.47-4.334 3.781-8.549 6.946-11.872.568-.597-.335-1.505-.906-.907-3.557 3.736-6.127 8.543-7.606 13.474-.931 3.107-2.086 8.039.697 10.579.608.554 1.516-.35.905-.907M145.054 178.633c2.947-.156 5.429-1.981 6.503-4.726.3-.768-.937-1.102-1.234-.34-.856 2.184-2.939 3.66-5.269 3.783-.82.043-.824 1.326 0 1.283M156.197 177.498c3.181 1.335 7.026-.707 7.79-4.053.184-.803-1.05-1.146-1.234-.34-.624 2.729-3.66 4.228-6.216 3.157-.758-.319-1.09.922-.34 1.236M171.636 176.577c2.514 1.474 5.92.503 7.23-2.122.367-.736-.737-1.387-1.105-.648-1 2.003-3.536 2.801-5.479 1.662-.712-.418-1.357.69-.646 1.108M200 187.52c-5.492-4.833-11.68-7.576-19.062-7.436-.823.015-.825 1.298 0 1.282 7.043-.133 12.914 2.447 18.157 7.06.617.543 1.526-.36.905-.907M203.34 181.052c-1.664-4.23-5.359-6.903-8.875-9.576-4.554-3.463-9.445-6.434-14.58-8.946-.737-.361-1.387.745-.646 1.107 4.452 2.178 8.723 4.695 12.748 7.59 3.738 2.69 8.367 5.714 10.118 10.166.298.76 1.537.429 1.234-.34M204.672 168.283c-6.065-6.985-13.27-12.864-21.694-16.75-.744-.342-1.395.763-.646 1.108 8.333 3.844 15.435 9.64 21.435 16.548.542.625 1.444-.286.905-.906M207.907 169.087c4.306 7.817 13.208 10.39 21.595 10.43.824.005.825-1.278 0-1.282-7.945-.038-16.397-2.365-20.49-9.796-.398-.722-1.504-.076-1.105.648M235.856 174.858c1.966.09 3.9-.093 5.817-.537.802-.186.462-1.423-.34-1.237-1.808.42-3.625.577-5.477.491-.824-.038-.822 1.245 0 1.283M237.823 179.324a13.445 13.445 0 0 1 5.005-1.019c.823-.008.825-1.29 0-1.282-1.85.018-3.63.365-5.346 1.064-.752.308-.423 1.55.34 1.237M158.982 138.928c3.028-.106 5.703-1.616 7.372-4.147.456-.69-.652-1.334-1.105-.648a7.751 7.751 0 0 1-6.267 3.512c-.822.029-.826 1.311 0 1.283" fill="#0C113E"/>
            <path d="m114.138 141.027 9.238 1.844a288.722 288.722 0 0 1-10.184 54.883c-9.568-2.348-19.205-4.72-28.148-8.86l29.094-47.867z" fill="#FFF"/>
            <g transform="translate(0 94.89)">
                <mask id="44dnid67nb" fill="#fff">
                    <use xlink:href="#gtn8terrca"/>
                </mask>
                <path d="M-3.613 0c36.58 18.26 80.96 33.698 121.406 39.573a871.465 871.465 0 0 1-15.919 67.476C80.21 101.38 49.066 94.554 34.442 89.477 12.591 81.89.797 77.825-16.225 68.525L-3.613 0z" fill="#0C113E" mask="url(#44dnid67nb)"/>
            </g>
            <path d="M94.947 182.23a4.199 4.199 0 0 1-4.562 3.805 4.203 4.203 0 0 1-3.796-4.571 4.199 4.199 0 0 1 4.561-3.805 4.203 4.203 0 0 1 3.797 4.572M78.543 178.408a4.199 4.199 0 0 1-4.562 3.804 4.202 4.202 0 0 1-3.796-4.571 4.199 4.199 0 0 1 4.562-3.804 4.203 4.203 0 0 1 3.796 4.57" fill="#FFF"/>
            <path d="M47.039 118.23c-3.238 4.04-6.22 8.275-8.878 12.72-.574.961-5.414 8.675-2.076 8.876 1.155.07 2.624-1.214 3.484-1.88 1.543-1.196 2.845-2.66 3.97-4.252 2.49-3.528 4.057-7.624 5.538-11.653l-.925-.256a129.126 129.126 0 0 0-2.945 15.612c-.236 1.897-1.905 8.05 1.256 8.67 3.308.65 4.005-6.218 4.415-8.104 1.134-5.216 1.727-10.525 1.844-15.86.013-.62-.947-.62-.96 0-.088 4.027-.436 8.037-1.113 12.01a80.463 80.463 0 0 1-1.153 5.576c-.192.789-.384 1.583-.615 2.361-.44 1.485-.313 2.184-1.965 2.161-.98.36-1.408.071-1.28-.866a7.003 7.003 0 0 1 .015-.995c.04-.823.148-1.66.233-2.479.224-2.158.507-4.311.846-6.455.606-3.827 1.401-7.618 2.347-11.375.154-.61-.714-.83-.925-.256-1.14 3.1-2.329 6.201-3.962 9.08-1.473 2.592-3.807 6.117-6.695 7.339-1.818.769-1.637-.223-1.145-1.718.28-.852.705-1.655 1.13-2.44.967-1.785 2.038-3.52 3.128-5.232a112.246 112.246 0 0 1 7.11-9.904c.383-.479-.292-1.163-.68-.68" fill="#FFECBB"/>
            <path d="m252.825 141.412-9.26 1.732a288.731 288.731 0 0 0 9.525 55.002c9.596-2.232 19.26-4.488 28.253-8.52l-28.518-48.214z" fill="#FFF"/>
            <g transform="translate(249.249 90.78)">
                <mask id="myrd0u9wid" fill="#fff">
                    <use xlink:href="#4qb5lsv4hc"/>
                </mask>
                <path d="M136.39 0C99.595 17.819 40.514 38.636 0 44.024a871.447 871.447 0 0 0 15.109 67.663C36.84 106.28 68.063 99.83 82.746 94.928c21.94-7.322 49.876-19.401 67.008-28.496L136.391 0z" fill="#003E99" mask="url(#myrd0u9wid)"/>
            </g>
            <path d="M301.678 180.2a4.207 4.207 0 0 1-2.702 5.296 4.195 4.195 0 0 1-5.284-2.708 4.207 4.207 0 0 1 2.702-5.295 4.195 4.195 0 0 1 5.284 2.708M285.095 183.146a4.207 4.207 0 0 1-2.702 5.295 4.195 4.195 0 0 1-5.284-2.708 4.207 4.207 0 0 1 2.702-5.295 4.196 4.196 0 0 1 5.284 2.708M311.36 122.533c-.519 5.317-.56 10.661-.045 15.981.174 1.792-.062 8.086 2.869 7.978 1.264-.046 1.835-1.392 2.236-2.391.894-2.225 1.487-4.583 1.842-6.952.691-4.618.361-9.288-.858-13.787l-.877.371c2.334 3.536 3.733 7.657 6.436 10.95 1.043 1.269 5.282 5.605 7.155 3.772.768-.752.569-2.658.422-3.556-.298-1.818-1.195-3.476-2.254-4.959-2.61-3.655-6.148-6.74-9.27-9.947-.432-.444-1.11.237-.679.68 2.327 2.39 4.708 4.736 6.974 7.183 1.143 1.235 2.233 2.537 3.073 4.003.563.983 2.156 4.353 1.182 5.556-.952 1.175-3.643-1.11-4.37-1.763-1.26-1.13-2.28-2.508-3.157-3.948-1.68-2.757-2.901-5.756-4.683-8.456-.293-.444-1.025-.175-.877.37.985 3.637 1.386 7.379 1.094 11.14a31.797 31.797 0 0 1-.82 5.112c-.167.68-1.628 6.873-3.377 5.152-.366-.36-.482-1.685-.558-2.156a67.925 67.925 0 0 1-.46-3.535 81.027 81.027 0 0 1-.393-5.32c-.156-3.832-.017-7.663.356-11.478.06-.616-.9-.612-.96 0" fill="#FFF"/>
        </g>
    </g>
</svg>
