<svg width="22" height="22" viewBox="0 0 22 22" xmlns="http://www.w3.org/2000/svg">
    <path d="M9.9 22H3.3c-.917 0-1.696-.32-2.337-.962C.32 20.396 0 19.617 0 18.7v-2.2c0-.312.105-.573.316-.784.211-.21.472-.316.784-.316h2.2V2.2c0-.605.215-1.123.646-1.554C4.377.216 4.895 0 5.5 0h12.1c.605 0 1.123.215 1.554.646.43.431.646.949.646 1.554v7.728a4.163 4.163 0 0 0-2.2.385V2.2H5.5v13.2h6.6l-1.567 1.568a2.172 2.172 0 0 0-.633 1.54V22zm2.2-1.1v-1.815c0-.147.027-.293.082-.44a.837.837 0 0 1 .248-.357l5.747-5.72c.166-.165.349-.285.55-.358a1.76 1.76 0 0 1 .605-.11 1.655 1.655 0 0 1 1.183.495l1.017 1.018c.147.165.262.348.344.55.083.201.124.403.124.604 0 .202-.037.408-.11.62-.073.21-.192.398-.358.563l-5.72 5.72c-.091.092-.21.17-.357.234a1.09 1.09 0 0 1-.44.096H13.2c-.312 0-.573-.105-.784-.316a1.064 1.064 0 0 1-.316-.784zm7.232-5.06 1.018-1.072-1.018-1.018-1.044 1.045 1.044 1.045zM7.7 8.8h7.7c.312 0 .573.105.784.316.21.211.316.472.316.784 0 .312-.105.573-.316.784-.211.21-.472.316-.784.316H7.7c-.312 0-.573-.105-.784-.316A1.064 1.064 0 0 1 6.6 9.9c0-.312.105-.573.316-.784.211-.21.472-.316.784-.316zm0-3.3h7.7c.312 0 .573.105.784.316.21.211.316.472.316.784 0 .312-.105.573-.316.784-.211.21-.472.316-.784.316H7.7c-.312 0-.573-.105-.784-.316A1.064 1.064 0 0 1 6.6 6.6c0-.312.105-.573.316-.784.211-.21.472-.316.784-.316z" fill="#FFF" fill-rule="nonzero"/>
</svg>
