<svg width="50" height="49" viewBox="0 0 50 49" xmlns="http://www.w3.org/2000/svg">
    <defs>
        <linearGradient x1="50%" y1="0%" x2="50%" y2="100%" id="kqhb3oxkga">
            <stop stop-color="#0072C9" offset="0%"/>
            <stop stop-color="#003E99" offset="100%"/>
        </linearGradient>
    </defs>
    <path d="M49.877 48.748c-.405-.607-.814-1.212-1.218-1.822-1.322-2-2.638-4.003-3.965-5.999-1.079-1.621-2.173-3.231-3.256-4.85-.681-1.017-1.352-2.041-2.035-3.057l-.669-.96-.002.001-.474-.686.061-.046.012.015 2.725-1.147h.002a15.048 15.048 0 0 0 3.99-3.315c.144-.17.287-.34.428-.51l.07-.084c.31-.38.572-.738.794-1.068l-.006-.011.334-.507c.227-.376.393-.705.516-.975a.228.228 0 0 1 .014-.067c.104-.263.204-.527.3-.793v-.002c.34-.943.626-1.902.796-2.902.382-2.232.403-4.47.114-6.709-.274-2.13-.914-4.146-2.035-5.973-1.063-1.733-2.453-3.146-4.12-4.268C40.75 2.003 39.11 1.305 37.38.83a22.066 22.066 0 0 0-5.587-.805C29.042-.01 26.29 0 23.537.007l-2.21.005a.83.83 0 0 1-.094-.005h-1.546c-.05.004-.104.003-.16.003H9.299c-.08 0-.159.002-.239 0-.152-.004-.232.065-.227.228.003.082 0 .164 0 .246 0 4.321-.002 8.643.001 12.965 0 .217-.021.405-.203.558-.409.347-.826.688-1.203 1.07-1.064 1.078-2.165 2.125-3.15 3.276-1.412 1.654-2.566 3.492-3.335 5.568a14.703 14.703 0 0 0-.92 4.297c-.129 2.29.308 4.487 1.078 6.625.07.193.153.381.23.572.06-.065.075-.111.067-.153-.038-.2-.05-.399-.048-.597v-.003c.005-.474.091-.946.102-1.42.005-.18-.009-.36-.012-.538a2.803 2.803 0 0 1 .007-.291.182.182 0 0 1 .042-.09c.24-1.713.705-2.895.724-2.945v-.001h.001c.61-1.8 1.503-3.457 2.582-5.019 1.278-1.849 2.794-3.473 4.423-4.99a37.988 37.988 0 0 1 4.576-3.676c1.676-1.135 3.387-2.217 5.09-3.311.197-.127.217-.223.12-.432-.623-1.327-1.233-2.66-1.845-3.992-.027-.06-.039-.128-.077-.256l11.36 1.083h.002l1.505.124c.056.003.113.007.169.012l.276.025c1.643.152 3.286.308 4.928.465.366.035.73.082 1.165.133l-11.19 16.465c-.124-.264-.219-.457-.307-.653-.553-1.23-1.107-2.46-1.654-3.693-.092-.208-.184-.272-.402-.157-1.226.65-2.48 1.25-3.685 1.938-1.77 1.01-3.402 2.229-4.845 3.695a12.903 12.903 0 0 0-2.264 3.082 9.826 9.826 0 0 0-1.133 4.466c-.013.899.125 1.766.332 2.62l.003.012c0 .003 0 .006.002.009v.001a22.96 22.96 0 0 0 .312 1.135l.004.013c.175.55.41 1.17.683 1.568l.002.002c.037.075.075.15.115.224.341.625.686 1.256 1.097 1.834.633.896 1.28 1.79 2.002 2.61.858.977 1.801 1.875 2.704 2.81l.086.09c.245.257.484.524.755.818a.007.007 0 0 0-.003-.002l.158.171c.008-.061.02-.122.037-.181v-.002l.012-1.508c-.004-4.392-.002-8.783-.002-13.175 0-.073-.023-.16.008-.215.042-.076.121-.174.192-.18.254-.025.511-.019.767-.019 2.347-.003 4.694-.009 7.04.001.122 0 .282.107.356.214.32.458.612.935.917 1.404l4.439 6.796c1.424 2.182 2.868 4.352 4.253 6.56.337.538.68.71 1.29.704 3.693-.033 7.386-.015 11.08-.017.105 0 .212-.018.352-.031-.059-.098-.089-.152-.123-.204" fill="url(#kqhb3oxkga)" fill-rule="evenodd"/>
</svg>
