<svg width="40" height="40" viewBox="0 0 40 40" xmlns="http://www.w3.org/2000/svg">
    <g fill="none" fill-rule="evenodd">
        <g>
            <path d="M36 36H4V4h32z"/>
            <rect fill="#333" width="40" height="40" rx="16"/>
        </g>
        <path d="M15.045 16.05a.71.71 0 0 1 .703-.718h1.406v-1.435a.71.71 0 0 1 .703-.718.71.71 0 0 1 .703.718v1.435h1.407a.71.71 0 0 1 .703.718.71.71 0 0 1-.703.718H18.56v1.436a.71.71 0 0 1-.703.717.71.71 0 0 1-.703-.717v-1.436h-1.406a.71.71 0 0 1-.703-.718z"/>
        <g fill="#FFF">
            <path d="M20.857 26.625h-1.714A5.143 5.143 0 0 1 14 21.482v-2.857a6 6 0 1 1 12 0v2.857a5.143 5.143 0 0 1-5.143 5.143zM20 27.5c.92 0 1.667.746 1.667 1.667v.166a1.667 1.667 0 1 1-3.334 0v-.166c0-.92.747-1.667 1.667-1.667z"/>
            <path d="M20 10c.92 0 1.667.746 1.667 1.667v1.041a1.667 1.667 0 1 1-3.334 0v-1.041c0-.92.747-1.667 1.667-1.667z"/>
        </g>
    </g>
</svg>
