<svg width="40" height="40" viewBox="0 0 40 40" xmlns="http://www.w3.org/2000/svg">
    <g fill="none" fill-rule="evenodd">
        <rect fill="#F5F5F5" width="40" height="40" rx="17"/>
        <path d="M22.561 10c1.183 0 2.297.558 3.006 1.506l3.176 4.25a6.254 6.254 0 0 1 0 7.488l-3.176 4.25A3.752 3.752 0 0 1 22.56 29H17.44a3.752 3.752 0 0 1-3.006-1.506l-3.176-4.25a6.254 6.254 0 0 1 0-7.488l3.176-4.25A3.752 3.752 0 0 1 17.44 10h5.122zM20 16.236a3.43 3.43 0 1 0-.002 6.86 3.43 3.43 0 0 0 .002-6.86z" fill="#333"/>
    </g>
</svg>
