<svg width="40" height="40" viewBox="0 0 40 40" xmlns="http://www.w3.org/2000/svg" xmlns:xlink="http://www.w3.org/1999/xlink">
    <defs>
        <path id="edi8diudsa" d="M0 0h23v23H0z"/>
    </defs>
    <g fill="none" fill-rule="evenodd">
        <path d="M36 36H4V4h32z"/>
        <rect fill="#E1F8E8" width="40" height="40" rx="16"/>
        <g transform="translate(9 8)">
            <mask id="7opmbi1i4b" fill="#fff">
                <use xlink:href="#edi8diudsa"/>
            </mask>
            <path d="M2.793 20.268c.132-.023.213-.032.292-.052.938-.243 1.874-.496 2.816-.725.155-.037.367-.024.499.054 2.044 1.231 4.234 1.723 6.602 1.338 2.793-.453 4.97-1.88 6.516-4.23 1.305-1.985 1.773-4.182 1.434-6.54-.358-2.48-1.525-4.519-3.476-6.073-2.162-1.723-4.641-2.4-7.388-1.982-2.772.42-4.98 1.804-6.498 4.14-2.018 3.103-2.159 6.37-.528 9.7.198.404.542.79.577 1.203.037.438-.217.9-.342 1.35-.165.591-.327 1.182-.504 1.817M0 23c.513-1.815 1.01-3.589 1.519-5.36a.784.784 0 0 0-.071-.657C.3 14.926-.156 12.705.089 10.377.452 6.922 2.07 4.15 4.894 2.112 6.381 1.04 8.044.388 9.864.126c2.46-.355 4.793.041 6.986 1.19 2.133 1.117 3.756 2.766 4.872 4.903a11.21 11.21 0 0 1 1.273 4.912c.061 2.093-.408 4.07-1.433 5.898-1.264 2.252-3.083 3.916-5.451 4.958-1.826.804-3.738 1.094-5.726.905a11.511 11.511 0 0 1-4.291-1.29.695.695 0 0 0-.453-.035c-1.829.46-3.654.933-5.48 1.402-.04.01-.08.016-.161.031" fill="#0CC345" mask="url(#7opmbi1i4b)"/>
        </g>
        <path d="M16.753 14.1c.15.007.316-.026.445.03.17.074.382.185.453.337.355.762.665 1.545 1 2.316.109.25.062.452-.111.646-.25.28-.489.568-.74.845-.166.181-.196.355-.07.575.944 1.643 2.319 2.771 4.086 3.423.11.04.332-.056.422-.158.304-.344.58-.714.851-1.084.184-.253.388-.294.664-.162a80.56 80.56 0 0 0 2.265 1.044c.323.142.368.356.32.668-.309 2-2.128 2.743-3.807 2.24-3.35-1.003-5.795-3.113-7.38-6.21-.44-.861-.592-1.805-.307-2.766.192-.646.593-1.166 1.122-1.561.203-.152.508-.166.767-.243l.02.06" fill="#0CC345"/>
    </g>
</svg>
